<svg version="1.1" id="Layer_1" xmlns="http://www.w3.org/2000/svg" xmlns:xlink="http://www.w3.org/1999/xlink" x="0px" y="0px"
	 width="100%" viewBox="0 0 271 276" enable-background="new 0 0 271 276" xml:space="preserve">
<path fill="#FEFEFE" opacity="1.000000" stroke="none" 
	d="
M272.000000,100.000000 
	C272.000000,159.306442 272.000000,218.112869 272.000000,276.959656 
	C181.734863,276.959656 91.469711,276.959656 1.102278,276.959656 
	C1.102278,185.110336 1.102278,93.220528 1.102278,1.165359 
	C91.333084,1.165359 181.666519,1.165359 272.000000,1.165359 
	C272.000000,33.863453 272.000000,66.681725 272.000000,100.000000 
M207.558823,148.933105 
	C203.175339,145.974960 199.391479,146.692917 196.341003,150.927689 
	C193.791885,154.466446 190.571518,155.041763 186.356888,154.501373 
	C176.456390,153.231995 166.496841,152.299423 156.532547,151.749649 
	C154.387650,151.631302 151.468491,153.165680 150.052658,154.883713 
	C147.400665,158.101715 145.587219,162.010757 142.805435,166.670013 
	C141.164551,164.618805 140.148804,163.072113 138.867233,161.791443 
	C129.680756,152.611572 119.692459,152.550751 110.487289,161.731842 
	C107.680038,164.531754 105.251129,167.710968 101.819969,171.673950 
	C97.989120,167.364105 95.287064,163.988937 92.239990,160.960968 
	C84.140175,152.911911 73.912567,152.912323 65.683167,160.927078 
	C59.241745,167.200485 52.419109,173.188644 46.723770,180.093643 
	C40.351879,187.818909 33.107452,190.891281 23.058493,190.067200 
	C12.775455,189.223907 6.856668,195.538803 6.787131,205.786682 
	C6.671833,222.778366 6.671141,239.771988 6.789674,256.763641 
	C6.859515,266.775330 13.066442,272.811554 23.179277,272.815247 
	C98.479233,272.842712 173.779205,272.836884 249.079178,272.806274 
	C258.830994,272.802307 265.400330,266.977509 265.594147,257.236755 
	C265.938812,239.918335 265.938751,222.582443 265.573181,205.264633 
	C265.362854,195.299240 259.171753,189.962326 249.113708,189.871735 
	C245.662186,189.840637 242.210159,189.866791 238.206268,189.866791 
	C238.206268,182.213333 238.027161,175.092056 238.276886,167.985840 
	C238.415482,164.041931 236.845520,161.871368 233.317551,160.362183 
	C224.916656,156.768478 216.624146,152.921387 207.558823,148.933105 
M185.499893,75.641487 
	C209.498566,75.641357 233.497238,75.651184 257.495911,75.634644 
	C264.167816,75.630043 265.642853,74.121376 265.673126,67.364212 
	C265.699982,61.364655 265.702026,55.364769 265.672760,49.365238 
	C265.638336,42.313679 264.325562,41.038647 257.132080,41.037521 
	C223.633896,41.032288 190.135574,40.978638 156.637634,41.070271 
	C146.125427,41.099026 137.150558,37.708130 129.483597,30.491764 
	C110.673820,12.787475 83.646645,8.447732 60.482899,19.891525 
	C44.690994,27.693342 34.056908,39.794449 33.989964,58.370590 
	C33.927719,75.641495 43.155029,88.390442 58.127766,95.023911 
	C68.439102,99.592201 72.138512,105.057281 70.314774,115.578339 
	C69.683372,119.220825 71.274796,122.582077 75.554558,122.475708 
	C79.813515,122.369865 80.717072,119.013649 80.654449,115.306129 
	C80.585106,111.201210 80.638588,107.094223 80.638588,103.023117 
	C84.411949,103.023117 87.499054,103.023117 91.052124,103.023117 
	C91.052124,110.096794 91.094635,116.886940 91.035515,123.676193 
	C91.002274,127.493752 91.494942,131.054352 96.356239,130.953293 
	C100.916939,130.858459 101.286331,127.434853 101.247726,123.816177 
	C101.168144,116.355324 101.223785,108.893036 101.223785,101.455330 
	C111.945702,98.815338 121.169983,94.391197 128.677200,86.907486 
	C136.396759,79.212090 145.559082,75.401001 156.502075,75.604599 
	C165.831665,75.778175 175.167053,75.640984 185.499893,75.641487 
M40.358002,155.188782 
	C37.906891,150.565643 35.827595,145.691101 32.913311,141.381149 
	C29.014425,135.615067 28.680695,131.508163 32.829674,125.962135 
	C33.726070,124.763908 34.688080,123.615005 35.604740,122.431664 
	C37.747612,119.665329 38.061024,116.834854 35.088310,114.591286 
	C32.348621,112.523598 29.875748,113.544159 27.657232,115.943939 
	C17.292898,127.155128 16.711479,137.404266 26.301170,149.230728 
	C30.451847,154.349548 31.782309,159.299927 27.961815,165.087372 
	C26.037474,168.002441 26.877073,170.555847 29.659443,172.348892 
	C32.482304,174.168030 35.386421,173.043900 36.420395,170.476868 
	C38.286819,165.843140 39.228592,160.836960 40.358002,155.188782 
M234.827133,94.316292 
	C233.462143,88.811050 229.531143,86.951790 226.108032,90.458534 
	C216.138992,100.671158 213.331482,112.158852 223.219025,123.651451 
	C227.749344,128.917160 229.958649,134.054749 225.627258,140.733643 
	C224.728348,142.119751 226.585388,145.293121 227.172287,147.642792 
	C229.521332,147.052872 232.948074,147.213547 233.992020,145.714645 
	C236.076675,142.721497 237.438522,138.916183 238.050323,135.270294 
	C239.319763,127.705666 235.139648,122.006653 230.638504,116.460106 
	C226.088333,110.853134 226.244446,106.894211 230.523499,101.184319 
	C232.007278,99.204407 233.332184,97.105438 234.827133,94.316292 
M91.412674,145.012070 
	C92.703125,147.935516 95.153175,149.038879 97.854034,147.812027 
	C99.322289,147.145096 101.025063,144.929581 100.960686,143.486664 
	C100.883690,141.760651 99.410011,139.470566 97.870705,138.566528 
	C94.663544,136.682953 91.806580,139.288315 91.412674,145.012070 
z"/>
<path fill="#575757" opacity="1.000000" stroke="none" 
	d="
M207.923340,149.054871 
	C216.624146,152.921387 224.916656,156.768478 233.317551,160.362183 
	C236.845520,161.871368 238.415482,164.041931 238.276886,167.985840 
	C238.027161,175.092056 238.206268,182.213333 238.206268,189.866791 
	C242.210159,189.866791 245.662186,189.840637 249.113708,189.871735 
	C259.171753,189.962326 265.362854,195.299240 265.573181,205.264633 
	C265.938751,222.582443 265.938812,239.918335 265.594147,257.236755 
	C265.400330,266.977509 258.830994,272.802307 249.079178,272.806274 
	C173.779205,272.836884 98.479233,272.842712 23.179277,272.815247 
	C13.066442,272.811554 6.859515,266.775330 6.789674,256.763641 
	C6.671141,239.771988 6.671833,222.778366 6.787131,205.786682 
	C6.856668,195.538803 12.775455,189.223907 23.058493,190.067200 
	C33.107452,190.891281 40.351879,187.818909 46.723770,180.093643 
	C52.419109,173.188644 59.241745,167.200485 65.683167,160.927078 
	C73.912567,152.912323 84.140175,152.911911 92.239990,160.960968 
	C95.287064,163.988937 97.989120,167.364105 101.819969,171.673950 
	C105.251129,167.710968 107.680038,164.531754 110.487289,161.731842 
	C119.692459,152.550751 129.680756,152.611572 138.867233,161.791443 
	C140.148804,163.072113 141.164551,164.618805 142.805435,166.670013 
	C145.587219,162.010757 147.400665,158.101715 150.052658,154.883713 
	C151.468491,153.165680 154.387650,151.631302 156.532547,151.749649 
	C166.496841,152.299423 176.456390,153.231995 186.356888,154.501373 
	C190.571518,155.041763 193.791885,154.466446 196.341003,150.927689 
	C199.391479,146.692917 203.175339,145.974960 207.923340,149.054871 
M211.506104,213.285416 
	C225.940353,213.285416 240.374603,213.285416 254.728394,213.285416 
	C256.383759,198.844971 253.858337,199.872726 243.985519,199.881989 
	C171.168610,199.950256 98.351601,199.916992 25.534630,199.917480 
	C24.201912,199.917480 22.557396,199.450302 21.604078,200.057678 
	C19.844086,201.178970 17.231150,202.886993 17.170099,204.437088 
	C16.772673,214.528046 16.965963,224.642258 16.965963,235.156326 
	C32.771515,235.156326 48.064907,235.154968 63.358299,235.157501 
	C66.357430,235.157990 69.368095,235.012497 72.352486,235.226547 
	C75.432991,235.447525 77.745422,237.320023 76.942528,240.401291 
	C76.456535,242.266403 74.253792,244.074020 72.377190,245.061096 
	C70.929634,245.822464 68.789337,245.291977 66.957039,245.292725 
	C50.472637,245.299469 33.988232,245.296661 16.904036,245.296661 
	C16.904036,247.914154 16.906879,250.206253 16.903540,252.498337 
	C16.889648,262.034271 17.236017,262.389038 26.663176,262.389160 
	C98.313736,262.390015 169.964325,262.361053 241.614853,262.412903 
	C256.556152,262.423706 255.230331,262.679657 255.212753,248.879456 
	C255.202240,240.624954 255.210815,232.370422 255.210815,223.856506 
	C253.321854,223.856506 252.175201,223.856491 251.028549,223.856522 
	C233.865738,223.856964 216.702866,223.833939 199.540161,223.876190 
	C195.766434,223.885483 192.581207,222.801743 192.541641,218.583206 
	C192.501266,214.281769 195.808594,213.270081 199.512375,213.285248 
	C203.178162,213.300247 206.844040,213.286621 211.506104,213.285416 
M216.381454,164.081955 
	C213.194168,162.679199 209.898666,161.474487 206.853821,159.811005 
	C204.418152,158.480316 202.821869,158.683243 200.840118,160.712830 
	C192.252975,169.507324 183.490646,178.130630 174.824722,186.848694 
	C174.117172,187.560516 173.656036,188.517273 172.908997,189.611221 
	C191.503906,189.611221 209.537933,189.611221 228.052399,189.611221 
	C228.052399,186.742401 227.652267,184.049042 228.123978,181.518188 
	C229.859299,172.207718 226.477310,166.408310 216.381454,164.081955 
M65.302094,175.801300 
	C60.710270,179.992798 56.118450,184.184296 51.526627,188.375793 
	C51.889969,188.877792 52.253311,189.379776 52.616650,189.881775 
	C61.364159,189.881775 70.111671,189.881760 78.859177,189.881760 
	C87.735306,189.881760 96.611427,189.881775 106.529892,189.881775 
	C98.465820,181.770599 91.372353,174.353973 83.940948,167.293015 
	C80.760490,164.271118 76.887909,164.606750 73.600510,167.588989 
	C70.895416,170.042999 68.397995,172.725922 65.302094,175.801300 
M131.552307,189.870071 
	C138.110458,189.870071 144.668610,189.870071 151.714661,189.870071 
	C143.876785,181.835861 136.706497,174.105530 129.078476,166.856888 
	C126.089218,164.016312 122.219933,164.802261 119.160759,167.597122 
	C115.738983,170.723282 112.455635,174.000946 108.838577,177.475357 
	C115.441536,183.410110 119.656258,192.384109 131.552307,189.870071 
M154.788101,177.700455 
	C156.908768,180.432449 159.029434,183.164459 160.415955,184.950668 
	C168.197372,177.199631 174.709091,170.713364 181.178970,164.268738 
	C174.460403,163.584335 167.274719,162.756409 160.067505,162.214737 
	C158.896698,162.126740 157.158752,162.985962 156.495773,163.960373 
	C154.390549,167.054565 152.669769,170.410324 150.578766,174.050827 
	C152.004791,175.261841 153.142410,176.227936 154.788101,177.700455 
z"/>
<path fill="#565556" opacity="1.000000" stroke="none" 
	d="
M184.999878,75.641373 
	C175.167053,75.640984 165.831665,75.778175 156.502075,75.604599 
	C145.559082,75.401001 136.396759,79.212090 128.677200,86.907486 
	C121.169983,94.391197 111.945702,98.815338 101.223785,101.455330 
	C101.223785,108.893036 101.168144,116.355324 101.247726,123.816177 
	C101.286331,127.434853 100.916939,130.858459 96.356239,130.953293 
	C91.494942,131.054352 91.002274,127.493752 91.035515,123.676193 
	C91.094635,116.886940 91.052124,110.096794 91.052124,103.023117 
	C87.499054,103.023117 84.411949,103.023117 80.638588,103.023117 
	C80.638588,107.094223 80.585106,111.201210 80.654449,115.306129 
	C80.717072,119.013649 79.813515,122.369865 75.554558,122.475708 
	C71.274796,122.582077 69.683372,119.220825 70.314774,115.578339 
	C72.138512,105.057281 68.439102,99.592201 58.127766,95.023911 
	C43.155029,88.390442 33.927719,75.641495 33.989964,58.370590 
	C34.056908,39.794449 44.690994,27.693342 60.482899,19.891525 
	C83.646645,8.447732 110.673820,12.787475 129.483597,30.491764 
	C137.150558,37.708130 146.125427,41.099026 156.637634,41.070271 
	C190.135574,40.978638 223.633896,41.032288 257.132080,41.037521 
	C264.325562,41.038647 265.638336,42.313679 265.672760,49.365238 
	C265.702026,55.364769 265.699982,61.364655 265.673126,67.364212 
	C265.642853,74.121376 264.167816,75.630043 257.495911,75.634644 
	C233.497238,75.651184 209.498566,75.641357 184.999878,75.641373 
M146.361832,50.367199 
	C136.696533,48.654541 128.689941,43.936012 121.663589,37.181942 
	C104.304947,20.495974 74.747559,19.391075 56.116566,34.599003 
	C44.487797,44.091225 40.815926,58.268444 47.079548,70.768555 
	C51.826523,80.241936 59.743469,85.962585 69.832802,89.486977 
	C70.507393,82.504295 70.507401,82.504288 65.688477,79.039337 
	C49.572517,67.451454 50.341671,46.657265 67.435287,36.502647 
	C79.842926,29.131769 92.812988,28.854780 105.574326,35.361980 
	C114.712608,40.021729 120.826706,47.444565 120.833130,58.227051 
	C120.839539,68.982407 114.872887,76.506981 105.637001,81.052216 
	C100.909996,83.378517 100.564171,86.238525 102.073288,92.033737 
	C108.632919,87.920197 115.378479,85.017105 120.388893,80.279099 
	C131.748306,69.537292 144.816803,64.921089 160.249573,65.061699 
	C190.077209,65.333481 219.909073,65.141724 249.739182,65.142097 
	C251.494385,65.142120 253.249588,65.142105 254.879593,65.142105 
	C254.879593,60.133610 254.879593,55.880672 254.879593,51.223515 
	C252.743881,51.223515 250.943649,51.223545 249.143417,51.223511 
	C218.646713,51.222965 188.149979,51.240192 157.653336,51.197483 
	C154.165771,51.192600 150.678680,50.852306 146.361832,50.367199 
M86.621292,41.106964 
	C79.974800,41.555603 73.822281,43.281914 68.917572,48.106148 
	C63.824764,53.115414 62.871082,59.643627 66.340233,65.352631 
	C70.759109,72.624550 82.401115,77.005875 91.088898,74.449654 
	C91.088898,70.402206 90.544518,66.150459 91.323402,62.156788 
	C91.700874,60.221310 94.559364,58.769703 96.294601,57.099026 
	C97.926689,58.835758 100.362541,60.325508 100.990974,62.370644 
	C101.808624,65.031586 101.190880,68.133598 101.190880,71.327988 
	C111.392723,66.764023 113.634796,56.016144 106.509026,48.561821 
	C101.350571,43.165524 94.702110,41.385567 86.621292,41.106964 
M80.480080,89.334839 
	C82.168503,96.025017 87.209518,91.175293 90.811310,93.136841 
	C90.811310,90.173691 90.811310,88.083290 90.811310,85.705162 
	C88.309464,85.557487 85.796425,85.060699 83.413933,85.422813 
	C82.305077,85.591347 81.449524,87.426514 80.480080,89.334839 
z"/>
<path fill="#555555" opacity="1.000000" stroke="none" 
	d="
M40.457264,155.587555 
	C39.228592,160.836960 38.286819,165.843140 36.420395,170.476868 
	C35.386421,173.043900 32.482304,174.168030 29.659443,172.348892 
	C26.877073,170.555847 26.037474,168.002441 27.961815,165.087372 
	C31.782309,159.299927 30.451847,154.349548 26.301170,149.230728 
	C16.711479,137.404266 17.292898,127.155128 27.657232,115.943939 
	C29.875748,113.544159 32.348621,112.523598 35.088310,114.591286 
	C38.061024,116.834854 37.747612,119.665329 35.604740,122.431664 
	C34.688080,123.615005 33.726070,124.763908 32.829674,125.962135 
	C28.680695,131.508163 29.014425,135.615067 32.913311,141.381149 
	C35.827595,145.691101 37.906891,150.565643 40.457264,155.587555 
z"/>
<path fill="#565556" opacity="1.000000" stroke="none" 
	d="
M234.778381,94.688568 
	C233.332184,97.105438 232.007278,99.204407 230.523499,101.184319 
	C226.244446,106.894211 226.088333,110.853134 230.638504,116.460106 
	C235.139648,122.006653 239.319763,127.705666 238.050323,135.270294 
	C237.438522,138.916183 236.076675,142.721497 233.992020,145.714645 
	C232.948074,147.213547 229.521332,147.052872 227.172287,147.642792 
	C226.585388,145.293121 224.728348,142.119751 225.627258,140.733643 
	C229.958649,134.054749 227.749344,128.917160 223.219025,123.651451 
	C213.331482,112.158852 216.138992,100.671158 226.108032,90.458534 
	C229.531143,86.951790 233.462143,88.811050 234.778381,94.688568 
z"/>
<path fill="#5B5A5B" opacity="1.000000" stroke="none" 
	d="
M91.285385,144.636963 
	C91.806580,139.288315 94.663544,136.682953 97.870705,138.566528 
	C99.410011,139.470566 100.883690,141.760651 100.960686,143.486664 
	C101.025063,144.929581 99.322289,147.145096 97.854034,147.812027 
	C95.153175,149.038879 92.703125,147.935516 91.285385,144.636963 
z"/>
<path fill="#FEFEFE" opacity="1.000000" stroke="none" 
	d="
M211.007996,213.285492 
	C206.844040,213.286621 203.178162,213.300247 199.512375,213.285248 
	C195.808594,213.270081 192.501266,214.281769 192.541641,218.583206 
	C192.581207,222.801743 195.766434,223.885483 199.540161,223.876190 
	C216.702866,223.833939 233.865738,223.856964 251.028549,223.856522 
	C252.175201,223.856491 253.321854,223.856506 255.210815,223.856506 
	C255.210815,232.370422 255.202240,240.624954 255.212753,248.879456 
	C255.230331,262.679657 256.556152,262.423706 241.614853,262.412903 
	C169.964325,262.361053 98.313736,262.390015 26.663176,262.389160 
	C17.236017,262.389038 16.889648,262.034271 16.903540,252.498337 
	C16.906879,250.206253 16.904036,247.914154 16.904036,245.296661 
	C33.988232,245.296661 50.472637,245.299469 66.957039,245.292725 
	C68.789337,245.291977 70.929634,245.822464 72.377190,245.061096 
	C74.253792,244.074020 76.456535,242.266403 76.942528,240.401291 
	C77.745422,237.320023 75.432991,235.447525 72.352486,235.226547 
	C69.368095,235.012497 66.357430,235.157990 63.358299,235.157501 
	C48.064907,235.154968 32.771515,235.156326 16.965963,235.156326 
	C16.965963,224.642258 16.772673,214.528046 17.170099,204.437088 
	C17.231150,202.886993 19.844086,201.178970 21.604078,200.057678 
	C22.557396,199.450302 24.201912,199.917480 25.534630,199.917480 
	C98.351601,199.916992 171.168610,199.950256 243.985519,199.881989 
	C253.858337,199.872726 256.383759,198.844971 254.728394,213.285416 
	C240.374603,213.285416 225.940353,213.285416 211.007996,213.285492 
M87.328560,235.655838 
	C86.359940,237.550232 84.780441,239.404800 84.653435,241.354034 
	C84.578094,242.510315 86.639290,244.578201 88.018265,244.856491 
	C89.651665,245.186142 92.234306,244.561203 93.206375,243.370819 
	C94.190483,242.165619 94.522469,239.127243 93.672173,238.042694 
	C92.519753,236.572784 89.969551,236.198746 87.328560,235.655838 
z"/>
<path fill="#FBFBFB" opacity="1.000000" stroke="none" 
	d="
M216.735199,164.220932 
	C226.477310,166.408310 229.859299,172.207718 228.123978,181.518188 
	C227.652267,184.049042 228.052399,186.742401 228.052399,189.611221 
	C209.537933,189.611221 191.503906,189.611221 172.908997,189.611221 
	C173.656036,188.517273 174.117172,187.560516 174.824722,186.848694 
	C183.490646,178.130630 192.252975,169.507324 200.840118,160.712830 
	C202.821869,158.683243 204.418152,158.480316 206.853821,159.811005 
	C209.898666,161.474487 213.194168,162.679199 216.735199,164.220932 
z"/>
<path fill="#FCFCFC" opacity="1.000000" stroke="none" 
	d="
M65.555313,175.554352 
	C68.397995,172.725922 70.895416,170.042999 73.600510,167.588989 
	C76.887909,164.606750 80.760490,164.271118 83.940948,167.293015 
	C91.372353,174.353973 98.465820,181.770599 106.529892,189.881775 
	C96.611427,189.881775 87.735306,189.881760 78.859177,189.881760 
	C70.111671,189.881760 61.364159,189.881775 52.616650,189.881775 
	C52.253311,189.379776 51.889969,188.877792 51.526627,188.375793 
	C56.118450,184.184296 60.710270,179.992798 65.555313,175.554352 
z"/>
<path fill="#FBFBFB" opacity="1.000000" stroke="none" 
	d="
M131.064362,189.869232 
	C119.656258,192.384109 115.441536,183.410110 108.838577,177.475357 
	C112.455635,174.000946 115.738983,170.723282 119.160759,167.597122 
	C122.219933,164.802261 126.089218,164.016312 129.078476,166.856888 
	C136.706497,174.105530 143.876785,181.835861 151.714661,189.870071 
	C144.668610,189.870071 138.110458,189.870071 131.064362,189.869232 
z"/>
<path fill="#F9F9F9" opacity="1.000000" stroke="none" 
	d="
M154.534058,177.447235 
	C153.142410,176.227936 152.004791,175.261841 150.578766,174.050827 
	C152.669769,170.410324 154.390549,167.054565 156.495773,163.960373 
	C157.158752,162.985962 158.896698,162.126740 160.067505,162.214737 
	C167.274719,162.756409 174.460403,163.584335 181.178970,164.268738 
	C174.709091,170.713364 168.197372,177.199631 160.415955,184.950668 
	C159.029434,183.164459 156.908768,180.432449 154.534058,177.447235 
z"/>
<path fill="#FAFAFA" opacity="1.000000" stroke="none" 
	d="
M146.776596,50.517365 
	C150.678680,50.852306 154.165771,51.192600 157.653336,51.197483 
	C188.149979,51.240192 218.646713,51.222965 249.143417,51.223511 
	C250.943649,51.223545 252.743881,51.223515 254.879593,51.223515 
	C254.879593,55.880672 254.879593,60.133610 254.879593,65.142105 
	C253.249588,65.142105 251.494385,65.142120 249.739182,65.142097 
	C219.909073,65.141724 190.077209,65.333481 160.249573,65.061699 
	C144.816803,64.921089 131.748306,69.537292 120.388893,80.279099 
	C115.378479,85.017105 108.632919,87.920197 102.073288,92.033737 
	C100.564171,86.238525 100.909996,83.378517 105.637001,81.052216 
	C114.872887,76.506981 120.839539,68.982407 120.833130,58.227051 
	C120.826706,47.444565 114.712608,40.021729 105.574326,35.361980 
	C92.812988,28.854780 79.842926,29.131769 67.435287,36.502647 
	C50.341671,46.657265 49.572517,67.451454 65.688477,79.039337 
	C70.507401,82.504288 70.507393,82.504295 69.832802,89.486977 
	C59.743469,85.962585 51.826523,80.241936 47.079548,70.768555 
	C40.815926,58.268444 44.487797,44.091225 56.116566,34.599003 
	C74.747559,19.391075 104.304947,20.495974 121.663589,37.181942 
	C128.689941,43.936012 136.696533,48.654541 146.776596,50.517365 
z"/>
<path fill="#FBFBFB" opacity="1.000000" stroke="none" 
	d="
M87.060753,41.105812 
	C94.702110,41.385567 101.350571,43.165524 106.509026,48.561821 
	C113.634796,56.016144 111.392723,66.764023 101.190880,71.327988 
	C101.190880,68.133598 101.808624,65.031586 100.990974,62.370644 
	C100.362541,60.325508 97.926689,58.835758 96.294601,57.099026 
	C94.559364,58.769703 91.700874,60.221310 91.323402,62.156788 
	C90.544518,66.150459 91.088898,70.402206 91.088898,74.449654 
	C82.401115,77.005875 70.759109,72.624550 66.340233,65.352631 
	C62.871082,59.643627 63.824764,53.115414 68.917572,48.106148 
	C73.822281,43.281914 79.974800,41.555603 87.060753,41.105812 
z"/>
<path fill="#F0F0F0" opacity="1.000000" stroke="none" 
	d="
M80.479614,88.920525 
	C81.449524,87.426514 82.305077,85.591347 83.413933,85.422813 
	C85.796425,85.060699 88.309464,85.557487 90.811310,85.705162 
	C90.811310,88.083290 90.811310,90.173691 90.811310,93.136841 
	C87.209518,91.175293 82.168503,96.025017 80.479614,88.920525 
z"/>
<path fill="#5B5B5B" opacity="1.000000" stroke="none" 
	d="
M87.673752,235.505234 
	C89.969551,236.198746 92.519753,236.572784 93.672173,238.042694 
	C94.522469,239.127243 94.190483,242.165619 93.206375,243.370819 
	C92.234306,244.561203 89.651665,245.186142 88.018265,244.856491 
	C86.639290,244.578201 84.578094,242.510315 84.653435,241.354034 
	C84.780441,239.404800 86.359940,237.550232 87.673752,235.505234 
z"/>
</svg>